<svg width="76" height="77" viewBox="0 0 76 77" fill="none" xmlns="http://www.w3.org/2000/svg">
<g filter="url(#filter0_d_102_2)">
<path d="M47 43.0003C47 43.2655 46.8946 43.5198 46.7071 43.7074C46.5196 43.8949 46.2652 44.0003 46 44.0003H30C29.7348 44.0003 29.4804 43.8949 29.2929 43.7074C29.1054 43.5198 29 43.2655 29 43.0003V32.4903C28.9999 32.3379 29.0346 32.1875 29.1015 32.0506C29.1684 31.9137 29.2657 31.7938 29.386 31.7003L37.386 25.4783C37.5615 25.3417 37.7776 25.2676 38 25.2676C38.2224 25.2676 38.4385 25.3417 38.614 25.4783L46.614 31.7003C46.7343 31.7938 46.8316 31.9137 46.8985 32.0506C46.9654 32.1875 47.0001 32.3379 47 32.4903V43.0003V43.0003ZM37 36.0003V42.0003H39V36.0003H37Z" fill="#345AFA"/>
</g>
<defs>
<filter id="filter0_d_102_2" x="0" y="0.267578" width="76" height="76.7327" filterUnits="userSpaceOnUse" color-interpolation-filters="sRGB">
<feFlood flood-opacity="0" result="BackgroundImageFix"/>
<feColorMatrix in="SourceAlpha" type="matrix" values="0 0 0 0 0 0 0 0 0 0 0 0 0 0 0 0 0 0 127 0" result="hardAlpha"/>
<feOffset dy="4"/>
<feGaussianBlur stdDeviation="14.5"/>
<feColorMatrix type="matrix" values="0 0 0 0 1 0 0 0 0 1 0 0 0 0 1 0 0 0 1 0"/>
<feBlend mode="normal" in2="BackgroundImageFix" result="effect1_dropShadow_102_2"/>
<feBlend mode="normal" in="SourceGraphic" in2="effect1_dropShadow_102_2" result="shape"/>
</filter>
</defs>
</svg>
