<svg width="48" height="48" viewBox="0 0 48 48" fill="none" xmlns="http://www.w3.org/2000/svg">
<g filter="url(#filter0_b_2_126)">
<g clip-path="url(#clip0_2_126)">
<rect width="48" height="48" rx="8" fill="#345AFA" fill-opacity="0.04"/>
<mask id="mask0_2_126" style="mask-type:alpha" maskUnits="userSpaceOnUse" x="0" y="0" width="48" height="48">
<circle cx="24" cy="24" r="24" fill="#D9D9D9"/>
</mask>
<g mask="url(#mask0_2_126)">
<path d="M16.8856 24.1361C20.6807 20.3411 26.8518 20.3411 30.6469 24.1361" stroke="#202327" stroke-linecap="round" stroke-linejoin="round"/>
<path d="M20 27.0855C21.0478 26.0378 22.4421 25.4603 23.9271 25.4603C25.4121 25.4603 26.8064 26.0378 27.8542 27.0897" stroke="#202327" stroke-linecap="round" stroke-linejoin="round"/>
<path d="M13.8909 21.1372C16.531 18.4971 20.0373 17.0451 23.7705 17.0451C27.5037 17.0451 31.01 18.4971 33.6501 21.1372" stroke="#202327" stroke-linecap="round" stroke-linejoin="round"/>
<path d="M26.6108 12.0893C26.653 11.9788 26.612 11.8539 26.5125 11.7899C26.4131 11.7259 26.2824 11.7404 26.1993 11.8246L21.822 16.2606C21.7754 16.3079 21.7494 16.3719 21.75 16.4384C21.7506 16.5049 21.7776 16.5684 21.8251 16.6149L23.4317 18.1869L21.7724 21.8344C21.7238 21.9413 21.7562 22.0678 21.8503 22.1381C21.9444 22.2085 22.0749 22.2038 22.1637 22.1268L27.1184 17.835C27.1807 17.781 27.2124 17.6999 27.2032 17.618C27.194 17.5362 27.145 17.4641 27.0723 17.4254L24.9958 16.3193L26.6108 12.0893Z" fill="black" stroke="#F7E4D8" stroke-width="0.5" stroke-linejoin="round"/>
</g>
<circle cx="24" cy="30" r="1.5" stroke="#202327" stroke-linecap="round" stroke-linejoin="round"/>
</g>
</g>
<defs>
<filter id="filter0_b_2_126" x="-33" y="-33" width="114" height="114" filterUnits="userSpaceOnUse" color-interpolation-filters="sRGB">
<feFlood flood-opacity="0" result="BackgroundImageFix"/>
<feGaussianBlur in="BackgroundImageFix" stdDeviation="16.5"/>
<feComposite in2="SourceAlpha" operator="in" result="effect1_backgroundBlur_2_126"/>
<feBlend mode="normal" in="SourceGraphic" in2="effect1_backgroundBlur_2_126" result="shape"/>
</filter>
<clipPath id="clip0_2_126">
<rect width="48" height="48" rx="8" fill="white"/>
</clipPath>
</defs>
</svg>
