<svg width="48" height="48" viewBox="0 0 48 48" fill="none" xmlns="http://www.w3.org/2000/svg">
<g filter="url(#filter0_b_2_155)">
<g clip-path="url(#clip0_2_155)">
<rect width="48" height="48" rx="8" fill="#345AFA" fill-opacity="0.04"/>
<g filter="url(#filter1_b_2_155)">
<g clip-path="url(#clip1_2_155)">
<rect width="48" height="48" rx="8" fill="#345AFA" fill-opacity="0.04"/>
<mask id="mask0_2_155" style="mask-type:alpha" maskUnits="userSpaceOnUse" x="0" y="0" width="48" height="48">
<circle cx="24" cy="24" r="24" fill="#D9D9D9"/>
</mask>
<g mask="url(#mask0_2_155)">
<path d="M17.8789 12.9559C17.8789 11.8513 18.7743 10.9559 19.8789 10.9559H27.1556C28.2601 10.9559 29.1556 11.8513 29.1556 12.9559V30.9559C29.1556 32.0605 28.2601 32.9559 27.1556 32.9559H19.8789C18.7743 32.9559 17.8789 32.0605 17.8789 30.9559V12.9559Z" stroke="#1A191E"/>
<path d="M25.7196 12.7408H21.5715C20.9943 12.7408 20.5264 12.2729 20.5264 11.6956C20.5264 11.3108 20.2144 10.9989 19.8296 10.9989H27.4616C27.0767 10.9989 26.7648 11.3108 26.7648 11.6956C26.7648 12.2729 26.2968 12.7408 25.7196 12.7408Z" fill="#1A191E"/>
<path d="M25.1718 16.8963L21.3594 20.76L22.8677 22.236L21.3594 25.5518L25.6748 21.8137L23.6967 20.76L25.1718 16.8963Z" fill="black"/>
</g>
</g>
</g>
</g>
<rect x="0.5" y="0.5" width="47" height="47" rx="7.5" stroke="url(#paint0_linear_2_155)"/>
</g>
<defs>
<filter id="filter0_b_2_155" x="-33" y="-33" width="114" height="114" filterUnits="userSpaceOnUse" color-interpolation-filters="sRGB">
<feFlood flood-opacity="0" result="BackgroundImageFix"/>
<feGaussianBlur in="BackgroundImageFix" stdDeviation="16.5"/>
<feComposite in2="SourceAlpha" operator="in" result="effect1_backgroundBlur_2_155"/>
<feBlend mode="normal" in="SourceGraphic" in2="effect1_backgroundBlur_2_155" result="shape"/>
</filter>
<filter id="filter1_b_2_155" x="-33" y="-33" width="114" height="114" filterUnits="userSpaceOnUse" color-interpolation-filters="sRGB">
<feFlood flood-opacity="0" result="BackgroundImageFix"/>
<feGaussianBlur in="BackgroundImageFix" stdDeviation="16.5"/>
<feComposite in2="SourceAlpha" operator="in" result="effect1_backgroundBlur_2_155"/>
<feBlend mode="normal" in="SourceGraphic" in2="effect1_backgroundBlur_2_155" result="shape"/>
</filter>
<linearGradient id="paint0_linear_2_155" x1="1.58559" y1="-3.92174e-06" x2="47.5886" y2="2.29301" gradientUnits="userSpaceOnUse">
<stop stop-color="white"/>
<stop offset="1" stop-color="white" stop-opacity="0"/>
</linearGradient>
<clipPath id="clip0_2_155">
<rect width="48" height="48" rx="8" fill="white"/>
</clipPath>
<clipPath id="clip1_2_155">
<rect width="48" height="48" rx="8" fill="white"/>
</clipPath>
</defs>
</svg>
