<svg width="32" height="11" viewBox="0 0 32 11" fill="none" xmlns="http://www.w3.org/2000/svg">
<path d="M20.8428 0.5C18.5706 0.5 16.5402 1.63586 16.5402 3.73444C16.5402 6.14112 20.1413 6.30735 20.1413 7.5164C20.1413 8.02548 19.5364 8.48119 18.5033 8.48119C17.0371 8.48119 15.9412 7.84443 15.9412 7.84443L15.4723 9.96213C15.4723 9.96213 16.7347 10.5 18.4108 10.5C20.8949 10.5 22.8496 9.30837 22.8496 7.1739C22.8496 4.63081 19.2335 4.46952 19.2335 3.34732C19.2335 2.94853 19.7301 2.51158 20.7602 2.51158C21.9226 2.51158 22.8709 2.97467 22.8709 2.97467L23.3298 0.92933C23.3298 0.92933 22.2979 0.5 20.8428 0.5ZM0.0550172 0.654366L0 0.963097C0 0.963097 0.955887 1.13183 1.81682 1.4684C2.92534 1.85436 3.0043 2.07904 3.191 2.77689L5.22538 10.3408H7.95249L12.1538 0.654366H9.43295L6.73335 7.24023L5.63176 1.65774C5.53073 1.01883 5.01901 0.654366 4.39262 0.654366H0.0550172ZM13.2479 0.654366L11.1135 10.3408H13.708L15.8349 0.654366H13.2479ZM27.7187 0.654366C27.093 0.654366 26.7615 0.977427 26.5183 1.54197L22.7171 10.3408H25.438L25.9644 8.87434H29.2792L29.5992 10.3408H32L29.9056 0.654366H27.7187ZM28.0725 3.27135L28.879 6.90618H26.7183L28.0725 3.27135Z" fill="white"/>
</svg>
